<svg width="49" height="46" viewBox="0 0 49 46" fill="none" xmlns="http://www.w3.org/2000/svg">
<g id="Group">
<g id="Group_2">
<path id="Vector" d="M17.7368 28.0129C16.6271 28.4339 16.0148 28.5487 15.326 28.5487C13.451 28.5487 12.0351 27.8216 11.155 26.9415C10.1218 25.9083 9.50952 24.4159 9.50952 23C9.50952 21.4694 10.1601 20.0152 11.155 19.0203C12.1116 18.0636 13.5658 17.3366 15.2495 17.3366C15.7852 17.3366 16.6271 17.4131 17.7751 17.8723V21.2398C16.8567 20.13 15.7852 20.0535 15.326 20.0535C14.5224 20.0535 13.9102 20.2831 13.3744 20.7806C12.7239 21.3928 12.4178 22.2347 12.4178 23C12.4178 23.7271 12.7239 24.5689 13.2979 25.1047C13.7571 25.5256 14.5224 25.8317 15.2878 25.8317C15.7087 25.8317 16.7419 25.7935 17.7368 24.6837V28.0129Z" fill="#054F7E"/>
<path id="Vector_2" d="M29.2555 26.9415C28.1458 27.9747 26.6152 28.5487 25.008 28.5487C23.4008 28.5487 21.8701 28.013 20.7604 26.9415C19.6124 25.8318 19.0767 24.3394 19.0767 22.9235C19.0767 21.4694 19.6124 19.977 20.7604 18.8673C21.8701 17.8341 23.4008 17.2601 25.008 17.2601C26.6152 17.2601 28.1458 17.7958 29.2555 18.8673C30.4035 19.9388 30.9393 21.4694 30.9393 22.9235C30.9393 24.3394 30.4035 25.8318 29.2555 26.9415ZM22.8268 20.8571C22.2528 21.4311 21.9849 22.2347 21.9849 22.9618C21.9849 23.9185 22.4441 24.569 22.8268 24.9517C23.3625 25.4491 24.0896 25.7935 25.008 25.7935C25.9646 25.7935 26.6917 25.4491 27.1891 24.9517C27.6866 24.4542 28.0693 23.6889 28.0693 22.8853C28.0693 22.0434 27.6866 21.3163 27.1891 20.8189C26.5769 20.2449 25.7733 19.977 25.008 19.977C24.2044 19.977 23.4008 20.2449 22.8268 20.8571Z" fill="#054F7E"/>
<path id="Vector_3" d="M37.0994 17.4897C37.903 17.4897 38.9362 17.6045 39.7398 18.4464C40.3521 19.0587 40.6582 20.0153 40.6582 20.8572C40.6582 21.7756 40.3521 22.5792 39.8164 23.1149C39.3954 23.5358 38.8214 23.7654 38.324 23.842L41.6914 28.2426H38.2092L35.5305 24.1098V28.2426H32.7371V17.4897H37.0994ZM35.5305 22.3496H36.0662C36.4872 22.3496 37.0994 22.2348 37.4438 21.9287C37.6734 21.7373 37.7882 21.3547 37.7882 21.0103C37.7882 20.7041 37.6734 20.3215 37.4056 20.0919C37.1377 19.824 36.6785 19.6709 36.0662 19.6709H35.5305V22.3496Z" fill="#054F7E"/>
<path id="Vector_4" d="M49.0003 19.9005H45.6711V21.6991H48.809V24.0716H45.6711V25.9466H49.0003V28.3192H42.8777V17.4897H49.0003V19.9005Z" fill="#054F7E"/>
</g>
<g id="Group_3">
<path id="Vector_5" d="M38.3239 40.3347C37.6351 41.521 36.334 42.2863 34.9564 42.2863H17.1625C15.7849 42.2863 14.4839 41.5592 13.7951 40.3347L4.87897 24.9133C4.19018 23.7271 4.19018 22.2347 4.87897 21.0484L13.7951 5.62704C14.4839 4.44078 15.7849 3.67545 17.1625 3.67545H34.9564C36.334 3.67545 37.6351 4.40251 38.3239 5.62704L42.6097 13.5099H46.6659L40.0841 1.60906C39.5484 0.652397 38.5152 0.0783997 37.4055 0.0783997H14.5221C13.4124 0.0783997 12.3792 0.690662 11.8435 1.64732L0.401798 21.4311C-0.133933 22.3877 -0.133933 23.574 0.401798 24.5307L11.8435 44.3527C12.3792 45.3094 13.4124 45.9216 14.5221 45.9216H37.4055C38.5152 45.9216 39.5484 45.3094 40.0841 44.3527L46.8955 32.4518H42.801L38.3239 40.3347Z" fill="#054F7E"/>
</g>
</g>
</svg>
